<?xml version="1.0" encoding="UTF-8" standalone="no" ?>
<!DOCTYPE svg PUBLIC "-//W3C//DTD SVG 1.1//EN" "http://www.w3.org/Graphics/SVG/1.1/DTD/svg11.dtd">
<svg xmlns="http://www.w3.org/2000/svg" xmlns:xlink="http://www.w3.org/1999/xlink" version="1.1" width="500" height="500" viewBox="0 0 500 500" xml:space="preserve">
<desc>Created with Fabric.js 4.6.0</desc>
<defs>
</defs>
<g transform="matrix(1 0 0 1 349.83 220)" id="0IdAfDER836L62DxwYgne"  >
<path style="stroke: rgb(0,0,0); stroke-width: 0; stroke-dasharray: none; stroke-linecap: butt; stroke-dashoffset: 0; stroke-linejoin: miter; stroke-miterlimit: 4; fill: rgb(0,0,0); fill-opacity: 0.48; fill-rule: nonzero; opacity: 1;" vector-effect="non-scaling-stroke"  transform=" translate(-150.17, -240)" d="M 77.59921 168.37846 C 67.79138 163.47455 63.815979999999996 151.54832 68.71988999999999 141.7405 L 114.51968 50.14093 C 115.84939 47.4815 118.27667 45.537459999999996 121.16232 44.82073 C 124.04798 44.104 127.10276999999999 44.686429999999994 129.52227 46.414649999999995 L 227.56491999999997 116.44511 L 300.34312 0 L 300.34312 480 L 246.19803 436.68393 C 239.19823 442.54814999999996 230.17906 446.08 220.33999999999997 446.08 C 198.09439999999998 446.08 180.03999999999996 428.0256 180.03999999999996 405.78 C 180.03999999999996 399.13266999999996 181.65208999999996 392.85956999999996 184.50637999999995 387.33059999999995 L 164.94399999999996 371.68069999999994 C 156.61692999999997 365.01903999999996 149.71649999999997 357.1859999999999 144.31219999999996 348.58952999999997 C 129.63340999999997 367.88009999999997 106.43293999999996 380.33998999999994 80.33999999999996 380.33998999999994 C 35.992319999999964 380.33998999999994 -4.263256414560601e-14 344.34766999999994 -4.263256414560601e-14 299.9999899999999 C -4.263256414560601e-14 255.65230999999991 35.99231999999996 219.6599899999999 80.33999999999996 219.6599899999999 C 106.07735999999996 219.6599899999999 129.00053999999994 231.7825899999999 143.70735999999997 250.6256199999999 C 143.86669999999995 250.36506999999992 144.02746999999997 250.10503999999992 144.18966999999998 249.8455199999999 L 167.12865 213.1431599999999 z" stroke-linecap="round" />
</g>
<g transform="matrix(1 0 0 1 382.89 142.01)" id="lVW3iDJngQ2130KBShC58"  >
<path style="stroke: rgb(0,0,0); stroke-width: 0; stroke-dasharray: none; stroke-linecap: butt; stroke-dashoffset: 0; stroke-linejoin: miter; stroke-miterlimit: 4; fill: rgb(108,212,215); fill-rule: nonzero; opacity: 1;" vector-effect="non-scaling-stroke"  transform=" translate(0, 0)" d="M 56.61058 97.48914 L -85.63077999999999 26.368460000000013 L -85.63077999999999 26.368460000000013 C -95.43860999999998 21.464550000000013 -99.41400999999999 9.538320000000013 -94.5101 -0.26949999999998653 L -48.71030999999999 -91.86907 L -48.71030999999999 -91.86907 C -47.380599999999994 -94.5285 -44.95331999999999 -96.47254 -42.06766999999999 -97.18927 C -39.18200999999999 -97.90599999999999 -36.127219999999994 -97.32356999999999 -33.707719999999995 -95.59535 L 96.61058 -2.5108499999999907 z" stroke-linecap="round" />
</g>
<g transform="matrix(1 0 0 1 422.54 171.44)" id="FRoMj6daNj45aVRUnuRjA"  >
<path style="stroke: rgb(0,0,0); stroke-width: 0; stroke-dasharray: none; stroke-linecap: butt; stroke-dashoffset: 0; stroke-linejoin: miter; stroke-miterlimit: 4; fill: rgb(51,119,121); fill-rule: nonzero; opacity: 1;" vector-effect="non-scaling-stroke"  transform=" translate(-56.96, -68.56)" d="M 74.42857 137.12962 L 0 99.91532999999998 L 62.44709 -0.000010000000017384991 L 113.92857000000001 36.77247999999998 L 113.92857000000001 38.37961999999998 z" stroke-linecap="round" />
</g>
<g transform="matrix(1.03 0 0 1.03 300 300)" id="5t7D-OBKb29hz9yPHmulA"  >
<path style="stroke: rgb(27,125,222); stroke-width: 0; stroke-dasharray: none; stroke-linecap: butt; stroke-dashoffset: 0; stroke-linejoin: miter; stroke-miterlimit: 4; fill: rgb(251,209,107); fill-rule: nonzero; opacity: 1;" vector-effect="non-scaling-stroke"  transform=" translate(0, 0)" d="M 0 -78 C 43.056 -78 78 -43.056 78 0 C 78 43.056 43.056 78 0 78 C -43.056 78 -78 43.056 -78 0 C -78 -43.056 -43.056 -78 0 -78 z" stroke-linecap="round" />
</g>
<g transform="matrix(1 0 0 1 344.95 304.98)" id="xbCqWhT-3cNgKpKO94jbO"  >
<path style="stroke: rgb(27,125,222); stroke-width: 0; stroke-dasharray: none; stroke-linecap: butt; stroke-dashoffset: 0; stroke-linejoin: miter; stroke-miterlimit: 4; fill: rgb(176,147,75); fill-rule: nonzero; opacity: 1;" vector-effect="non-scaling-stroke"  transform=" translate(-35.73, -70.78)" d="M 71.46624 66.14178 C 71.46624 100.74118999999999 49.55811 130.25477999999998 18.86636 141.55803 C -3.97053 111.4537 -6.710270000000001 69.49618 14.13278 36.147310000000004 L 36.72485 7.105427357601002e-15 C 57.708760000000005 14.499510000000008 71.46624 38.723800000000004 71.46624 66.14178000000001 z" stroke-linecap="round" />
</g>
<g transform="matrix(1 0 0 1 434.86 240)" id="pojOKEqm7XjPMifxPCiej"  >
<path style="stroke: rgb(0,0,0); stroke-width: 0; stroke-dasharray: none; stroke-linecap: butt; stroke-dashoffset: 0; stroke-linejoin: miter; stroke-miterlimit: 4; fill: rgb(198,169,215); fill-rule: nonzero; opacity: 1;" vector-effect="non-scaling-stroke"  transform=" translate(0, 0)" d="M 85.14312 -240 L -71.01034 9.845529999999997 L -71.01034 9.845529999999997 C -96.00726 49.840599999999995 -87.08497 102.21752 -50.256 131.6807 L 85.14312000000001 240 z" stroke-linecap="round" />
</g>
<g transform="matrix(0.62 0 0 0.62 460.3 383.59)" id="ZemYnYx3EZ-9TzA-EQqNm"  >
<path style="stroke: rgb(97,121,77); stroke-width: 0; stroke-dasharray: none; stroke-linecap: butt; stroke-dashoffset: 0; stroke-linejoin: miter; stroke-miterlimit: 4; fill: rgb(182,136,209); fill-rule: nonzero; opacity: 1;" vector-effect="non-scaling-stroke"  transform=" translate(0, 0)" d="M 0 -65 C 35.88 -65 65 -35.879999999999995 65 0 C 65 35.88 35.879999999999995 65 0 65 C -35.88 65 -65 35.879999999999995 -65 0 C -65 -35.88 -35.879999999999995 -65 0 -65 z" stroke-linecap="round" />
</g>
<g transform="matrix(0.62 0 0 0.62 440 405.78)" id="e-LQj5Q5aQU0_wRsFDBDh"  >
<path style="stroke: rgb(97,121,77); stroke-width: 0; stroke-dasharray: none; stroke-linecap: butt; stroke-dashoffset: 0; stroke-linejoin: miter; stroke-miterlimit: 4; fill: rgb(255,125,198); fill-rule: nonzero; opacity: 1;" vector-effect="non-scaling-stroke"  transform=" translate(0, 0)" d="M 0 -65 C 35.88 -65 65 -35.879999999999995 65 0 C 65 35.88 35.879999999999995 65 0 65 C -35.88 65 -65 35.879999999999995 -65 0 C -65 -35.88 -35.879999999999995 -65 0 -65 z" stroke-linecap="round" />
</g>
</svg>